<svg width="400" height="400" viewBox="0 0 400 400" fill="none" xmlns="http://www.w3.org/2000/svg">
<rect width="400" height="400" fill="#118AB2"/>
<path d="M75.208 220.04C75.208 225.245 73.864 229.875 71.176 233.928C68.5307 237.939 64.6907 241.075 59.656 243.336C54.664 245.597 48.6267 246.728 41.544 246.728C34.376 246.728 28.0827 245.661 22.664 243.528C17.288 241.352 12.744 238.472 9.032 234.888L17.16 225.8C20.3173 228.659 23.88 230.92 27.848 232.584C31.816 234.205 36.36 235.016 41.48 235.016C44.808 235.016 47.8587 234.504 50.632 233.48C53.4053 232.413 55.624 230.835 57.288 228.744C58.952 226.611 59.784 223.944 59.784 220.744C59.784 218.141 59.2507 215.944 58.184 214.152C57.1173 212.36 55.2613 210.739 52.616 209.288C50.0133 207.837 46.3653 206.429 41.672 205.064C35.4427 203.187 30.216 201.096 25.992 198.792C21.768 196.488 18.568 193.736 16.392 190.536C14.2587 187.293 13.192 183.368 13.192 178.76C13.192 173.981 14.4933 169.8 17.096 166.216C19.7413 162.632 23.3467 159.859 27.912 157.896C32.52 155.891 37.7253 154.888 43.528 154.888C49.928 154.888 55.5173 155.805 60.296 157.64C65.0747 159.475 69.3413 162.099 73.096 165.512L65.288 174.344C62.1733 171.613 58.824 169.629 55.24 168.392C51.6987 167.155 48.0933 166.536 44.424 166.536C41.4373 166.536 38.728 166.963 36.296 167.816C33.864 168.669 31.944 169.928 30.536 171.592C29.128 173.256 28.424 175.368 28.424 177.928C28.424 180.189 29.0427 182.131 30.28 183.752C31.56 185.373 33.6933 186.888 36.68 188.296C39.7093 189.661 43.848 191.133 49.096 192.712C54.0453 194.163 58.4827 195.955 62.408 198.088C66.376 200.221 69.4907 203.016 71.752 206.472C74.056 209.928 75.208 214.451 75.208 220.04ZM106.262 232.712H150.934L149.27 245H89.302V233.48L134.23 168.712H93.91V156.68H150.614V168.328L106.262 232.712ZM199.204 246.728C191.695 246.728 185.252 245.021 179.876 241.608C174.5 238.152 170.383 233.011 167.524 226.184C164.665 219.357 163.236 210.867 163.236 200.712C163.236 193.16 164.26 186.525 166.308 180.808C168.356 175.091 171.172 170.312 174.756 166.472C178.34 162.632 182.436 159.752 187.044 157.832C191.695 155.869 196.601 154.888 201.764 154.888C207.78 154.888 212.793 155.784 216.804 157.576C220.857 159.368 224.612 161.864 228.068 165.064L219.748 173.704C217.06 171.229 214.308 169.416 211.492 168.264C208.719 167.069 205.604 166.472 202.148 166.472C199.033 166.472 196.068 167.091 193.252 168.328C190.479 169.523 188.004 171.464 185.828 174.152C183.652 176.797 181.924 180.317 180.644 184.712C179.407 189.064 178.788 194.419 178.788 200.776C178.788 208.968 179.577 215.603 181.156 220.68C182.735 225.715 185.081 229.384 188.196 231.688C191.353 233.992 195.257 235.144 199.908 235.144C202.596 235.144 205.156 234.824 207.588 234.184C210.02 233.544 212.324 232.627 214.5 231.432V207.112H199.524L197.924 195.784H228.9V238.6C224.719 240.947 220.26 242.888 215.524 244.424C210.831 245.96 205.391 246.728 199.204 246.728ZM264.818 200.2C264.818 206.344 265.309 211.912 266.29 216.904C267.314 221.853 268.893 226.483 271.026 230.792C273.159 235.059 275.869 239.24 279.154 243.336C282.482 247.432 286.429 251.677 290.994 256.072L283.058 263.752C276.189 258.035 270.279 252.104 265.33 245.96C260.423 239.859 256.647 233.096 254.002 225.672C251.357 218.248 250.034 209.757 250.034 200.2C250.034 190.6 251.357 182.088 254.002 174.664C256.647 167.24 260.423 160.477 265.33 154.376C270.279 148.232 276.189 142.323 283.058 136.648L290.994 144.328C286.514 148.637 282.61 152.84 279.282 156.936C275.997 160.989 273.266 165.171 271.09 169.48C268.957 173.789 267.378 178.44 266.354 183.432C265.33 188.424 264.818 194.013 264.818 200.2ZM359.232 200.2C359.232 194.013 358.72 188.424 357.696 183.432C356.672 178.44 355.072 173.789 352.896 169.48C350.763 165.171 348.032 160.989 344.704 156.936C341.419 152.84 337.536 148.637 333.056 144.328L340.992 136.648C347.861 142.323 353.749 148.232 358.656 154.376C363.605 160.477 367.403 167.24 370.048 174.664C372.693 182.088 374.016 190.6 374.016 200.2C374.016 209.757 372.693 218.248 370.048 225.672C367.403 233.096 363.605 239.859 358.656 245.96C353.749 252.104 347.861 258.035 340.992 263.752L333.056 256.072C337.621 251.677 341.547 247.432 344.832 243.336C348.16 239.24 350.891 235.059 353.024 230.792C355.157 226.483 356.715 221.853 357.696 216.904C358.72 211.912 359.232 206.344 359.232 200.2Z" fill="white"/>
</svg>
